<?xml version="1.0" encoding="UTF-8" standalone="no"?>
<!-- Creator: CorelDRAW 2018 (64-Bit) -->

<svg
   xmlns:dc="http://purl.org/dc/elements/1.1/"
   xmlns:cc="http://creativecommons.org/ns#"
   xmlns:rdf="http://www.w3.org/1999/02/22-rdf-syntax-ns#"
   xmlns:svg="http://www.w3.org/2000/svg"
   xmlns="http://www.w3.org/2000/svg"
   xmlns:sodipodi="http://sodipodi.sourceforge.net/DTD/sodipodi-0.dtd"
   xmlns:inkscape="http://www.inkscape.org/namespaces/inkscape"
   xml:space="preserve"
   width="251.42931mm"
   height="44.5438mm"
   version="1.1"
   style="clip-rule:evenodd;fill-rule:evenodd;image-rendering:optimizeQuality;shape-rendering:geometricPrecision;text-rendering:geometricPrecision"
   viewBox="0 0 25142.931 4454.38"
   id="svg104"
   sodipodi:docname="EleetPro Logo.svg"
   inkscape:version="0.92.4 (5da689c313, 2019-01-14)"><metadata
   id="metadata108"><rdf:RDF><cc:Work
       rdf:about=""><dc:format>image/svg+xml</dc:format><dc:type
         rdf:resource="http://purl.org/dc/dcmitype/StillImage" /></cc:Work></rdf:RDF></metadata><sodipodi:namedview
   pagecolor="#ffffff"
   bordercolor="#666666"
   borderopacity="1"
   objecttolerance="10"
   gridtolerance="10"
   guidetolerance="10"
   inkscape:pageopacity="0"
   inkscape:pageshadow="2"
   inkscape:window-width="1596"
   inkscape:window-height="994"
   id="namedview106"
   showgrid="false"
   inkscape:snap-bbox="false"
   inkscape:zoom="0.70731944"
   inkscape:cx="305.48984"
   inkscape:cy="84.177265"
   inkscape:window-x="0"
   inkscape:window-y="0"
   inkscape:window-maximized="0"
   inkscape:current-layer="svg104" />
 <defs
   id="defs89">
  <style
   type="text/css"
   id="style87">
   <![CDATA[
    .fil2 {fill:#727271;fill-rule:nonzero}
    .fil1 {fill:#FDCA38;fill-rule:nonzero}
    .fil0 {fill:#989898;fill-rule:nonzero}
   ]]>
  </style>
 </defs>
 <g
   id="Layer_x0020_1"
   transform="translate(-2428.47,-12772.81)">
  <metadata
   id="CorelCorpID_0Corel-Layer" />
  <g
   id="_2136935945472">
   <path
   class="fil0"
   d="m 4032.56,14001.08 c -942.16,6.02 -1604.09,656.06 -1604.09,1615.99 0,954.2 644.02,1604.1 1621.87,1604.1 548.7,0 1001.93,-196.66 1311.97,-536.66 l -363.79,-387.59 c -232.5,238.52 -548.56,369.81 -894.43,369.81 -500.96,0 -876.65,-304.16 -983.87,-793.23 H 5517.4 c 83.43,-1144.84 -369.67,-1872.42 -1484.84,-1872.42 z m 14974.64,-977.85 h -1663.73 v 4174.14 h 703.79 v -1258.22 h 959.94 c 1049.52,0 1651.82,-548.55 1651.82,-1490.71 0,-906.47 -602.3,-1425.21 -1651.82,-1425.21 z m 2881.49,1633.91 v -632.12 h -685.73 v 3172.35 h 685.73 v -1657.7 c 53.61,-542.68 459.11,-918.37 1097.25,-882.53 v -656.06 c -500.96,0 -882.53,226.62 -1097.25,656.06 z m -2911.31,649.89 h -930.12 v -1651.82 h 930.12 c 644.02,0 1007.81,262.45 1007.81,811 0,566.61 -363.79,840.82 -1007.81,840.82 z m -15869.2,65.65 c 71.67,-506.84 429.44,-822.9 930.4,-822.9 518.74,0 858.6,310.04 882.4,822.9 z m 3154.58,-2599.87 v 4424.56 h 685.73 v -4424.56 z m 3035.32,1228.27 c -942.3,6.02 -1604.09,656.06 -1604.09,1615.99 0,954.2 643.88,1604.1 1621.87,1604.1 548.7,0 1001.79,-196.66 1311.97,-536.66 l -363.79,-387.59 c -232.5,238.52 -548.56,369.81 -894.43,369.81 -500.97,0 -876.65,-304.16 -984.01,-793.23 h 2397.32 c 83.42,-1144.84 -369.81,-1872.42 -1484.84,-1872.42 z m -924.38,1371.6 c 71.67,-506.84 429.44,-822.9 930.26,-822.9 518.74,0 858.74,310.04 882.53,822.9 z m 4430.72,-1371.6 c -942.16,6.02 -1604.1,656.06 -1604.1,1615.99 0,954.2 644.02,1604.1 1621.87,1604.1 548.7,0 1001.93,-196.66 1311.97,-536.66 l -363.79,-387.59 c -232.49,238.52 -548.55,369.81 -894.43,369.81 -500.96,0 -876.65,-304.16 -983.87,-793.23 h 2397.18 c 83.43,-1144.84 -369.81,-1872.42 -1484.83,-1872.42 z m -924.39,1371.6 c 71.67,-506.84 429.44,-822.9 930.27,-822.9 518.88,0 858.73,310.04 882.53,822.9 z m 4746.78,1097.25 c -184.91,89.44 -333.98,137.04 -477.03,137.04 -214.72,0 -340,-101.35 -340,-429.3 v -1520.53 h 936.29 v -512.87 h -936.29 v -870.63 h -679.71 v 870.63 h -447.21 v 512.87 h 447.21 v 1645.8 c 0,649.9 411.39,924.25 888.42,924.25 268.32,0 530.77,-83.43 781.19,-232.5 z"
   id="path92"
   inkscape:connector-curvature="0"
   style="fill:#989898;fill-rule:nonzero" />
   <g
   id="g98">
    <path
   class="fil1"
   d="m 25225.87,13022.06 c -999.62,0 -1684.26,660.38 -1684.26,1635.81 0,969.29 684.64,1635.75 1684.26,1635.75 993.55,0 1678.18,-666.46 1678.18,-1635.75 0,-975.43 -684.63,-1635.81 -1678.18,-1635.81 z m 0,599.84 c 575.52,0 981.45,424.04 981.45,1041.99 0,624.03 -405.93,1048.13 -981.45,1048.13 -581.59,0 -987.53,-424.1 -987.53,-1048.13 0,-617.95 405.94,-1041.99 987.53,-1041.99 z"
   id="path94"
   inkscape:connector-curvature="0"
   style="fill:#fdca38;fill-rule:nonzero" />
    <path
   class="fil1"
   d="m 23798.89,17197.38 h 403.86 c 189.5,-396.73 572.85,-623.89 1023.11,-623.89 448.39,0 828.85,229 1017.15,623.89 h 403.77 c -217.92,-592.3 -772.38,-903.76 -1420.92,-903.76 -650.32,0 -1208.05,309.46 -1426.97,903.76 z"
   id="path96"
   inkscape:connector-curvature="0"
   style="fill:#fdca38;fill-rule:nonzero" />
   </g>
   <path
   class="fil2"
   d="m 27008.87,13374.33 v -294.15 h -104.81 v -59.85 h 280.81 v 59.85 h -104.3 v 294.15 z m 221.4,0 v -354 h 107.34 l 63.48,241.43 62.67,-241.43 h 107.64 v 354 h -66.26 l -0.26,-278.68 -69.78,278.68 h -68.87 l -69.48,-278.68 -0.26,278.68 z"
   id="path100"
   inkscape:connector-curvature="0"
   style="fill:#727271;fill-rule:nonzero" />
  </g>
 </g>
</svg>